<?xml version="1.0" encoding="utf-8"?>
<!-- Generator: Adobe Illustrator 21.1.0, SVG Export Plug-In . SVG Version: 6.00 Build 0)  -->
<svg version="1.1" id="Capa_1" xmlns="http://www.w3.org/2000/svg" xmlns:xlink="http://www.w3.org/1999/xlink" x="0px" y="0px"
	 viewBox="0 0 512 512" style="enable-background:new 0 0 512 512;" xml:space="preserve">
<style type="text/css">
	.st0{fill:#014165;}
</style>
<g>
	<g>
		<path class="st0" d="M127.8,464.4c-3.1,0-5.6-3-5.6-6.6V192.4c0-3.6,2.5-6.6,5.6-6.6h377.8c3.1,0,5.6,3,5.6,6.6v265.4
			c0,3.6-2.5,6.6-5.6,6.6H127.8z M133.5,451.2H500l0-252.2H133.5V451.2z"/>
		<path class="st0" d="M505.7,186.2c2.8,0,5.1,2.7,5.1,6.1v265.4c0,3.4-2.3,6.1-5.1,6.1H127.8c-2.8,0-5.1-2.7-5.1-6.1V192.4
			c0-3.4,2.3-6.1,5.1-6.1H505.7 M133,451.7h1h365.6h1v-1V199.5v-1h-1H134h-1v1v251.2V451.7 M505.7,185.2H127.8
			c-3.4,0-6.1,3.2-6.1,7.1v265.4c0,3.9,2.7,7.1,6.1,7.1h377.8c3.4,0,6.1-3.2,6.1-7.1V192.4C511.8,188.4,509,185.2,505.7,185.2
			L505.7,185.2z M134,450.7V199.5h365.6v251.2h0H134L134,450.7z"/>
	</g>
	<g>
		<path class="st0" d="M220.9,324.5c-20.3,0-36.8-19.2-36.8-42.8s16.5-42.8,36.8-42.8c20.3,0,36.8,19.2,36.8,42.8
			S241.2,324.5,220.9,324.5z M220.9,252.1c-14.1,0-25.5,13.3-25.5,29.6c0,16.3,11.5,29.6,25.5,29.6c14.1,0,25.5-13.3,25.5-29.6
			C246.5,265.4,235,252.1,220.9,252.1z"/>
		<path class="st0" d="M220.9,239.4c20,0,36.3,19,36.3,42.3S240.9,324,220.9,324c-20,0-36.3-19-36.3-42.3S200.9,239.4,220.9,239.4
			 M220.9,311.8c14.3,0,26-13.5,26-30.1s-11.7-30.1-26-30.1c-14.4,0-26,13.5-26,30.1S206.6,311.8,220.9,311.8 M220.9,238.4
			c-20.5,0-37.3,19.4-37.3,43.3c0,23.9,16.7,43.3,37.3,43.3s37.3-19.4,37.3-43.3S241.5,238.4,220.9,238.4L220.9,238.4z M220.9,310.8
			c-13.8,0-25-13-25-29.1c0-16,11.2-29.1,25-29.1c13.8,0,25,13,25,29.1C246,297.7,234.7,310.8,220.9,310.8L220.9,310.8z"/>
	</g>
	<g>
		<path class="st0" d="M267,411.4c-3.1,0-5.6-3-5.6-6.6v-20.1c0-15.7-11-28.4-24.5-28.4h-31.6c-13.5,0-24.5,12.7-24.5,28.4v20.1
			c0,3.6-2.5,6.6-5.6,6.6c-1.5,0-2.9-0.7-3.9-1.9c-1.1-1.3-1.7-2.9-1.7-4.7v-20.1c0-23,16-41.6,35.8-41.6h31.6
			c19.7,0,35.8,18.7,35.8,41.6v20.1C272.6,408.5,270.1,411.4,267,411.4z"/>
		<path class="st0" d="M236.9,343.6c19.4,0,35.3,18.4,35.3,41.1v20.1c0,3.4-2.3,6.1-5.1,6.1c-2.8,0-5.1-2.7-5.1-6.1v-20.1
			c0-15.9-11.2-28.9-25-28.9h-31.6c-13.8,0-25,13-25,28.9v20.1c0,3.4-2.3,6.1-5.1,6.1c-1.3,0-2.6-0.6-3.6-1.7
			c-1-1.2-1.6-2.7-1.5-4.4v-20.1c0-22.7,15.8-41.1,35.3-41.1H236.9 M236.9,342.6h-31.6c-20,0-36.3,18.9-36.3,42.1v20.1
			c0,3.9,2.7,7.1,6.1,7.1c3.4,0,6.1-3.2,6.1-7.1v-20.1c0-15.4,10.8-27.9,24-27.9h31.6c13.2,0,24,12.5,24,27.9v20.1
			c0,3.9,2.7,7.1,6.1,7.1c3.4,0,6.1-3.2,6.1-7.1v-20.1C273.1,361.5,256.9,342.6,236.9,342.6L236.9,342.6z"/>
	</g>
	<g>
		<path class="st0" d="M290.7,252.1c-3.1,0-5.6-3-5.6-6.6c0-3.6,2.5-6.6,5.6-6.6h167.7c3.1,0,5.6,3,5.6,6.6c0,3.6-2.5,6.6-5.6,6.6
			H290.7z"/>
		<path class="st0" d="M458.4,239.4c2.8,0,5.1,2.7,5.1,6.1c0,3.4-2.3,6.1-5.1,6.1H290.7c-2.8,0-5.1-2.7-5.1-6.1
			c0-3.4,2.3-6.1,5.1-6.1H458.4 M458.4,238.4H290.7c-3.4,0-6.1,3.2-6.1,7.1c0,3.9,2.7,7.1,6.1,7.1h167.7c3.4,0,6.1-3.2,6.1-7.1
			C464.5,241.5,461.8,238.4,458.4,238.4L458.4,238.4z"/>
	</g>
	<g>
		<path class="st0" d="M337,411.4c-3.1,0-5.6-3-5.6-6.6s2.5-6.6,5.6-6.6h121.4c3.1,0,5.6,3,5.6,6.6c0,3.6-2.5,6.6-5.6,6.6H337z"/>
		<path class="st0" d="M458.4,398.7c2.8,0,5.1,2.7,5.1,6.1c0,3.4-2.3,6.1-5.1,6.1H337c-2.8,0-5.1-2.7-5.1-6.1c0-3.4,2.3-6.1,5.1-6.1
			H458.4 M458.4,397.7H337c-3.4,0-6.1,3.2-6.1,7.1c0,3.9,2.7,7.1,6.1,7.1h121.4c3.4,0,6.1-3.2,6.1-7.1
			C464.5,400.9,461.8,397.7,458.4,397.7L458.4,397.7z"/>
	</g>
	<g>
		<path class="st0" d="M382.9,333.7c-3.1,0-5.6-3-5.6-6.6c0-3.6,2.5-6.6,5.6-6.6h75.5c3.1,0,5.6,3,5.6,6.6c0,3.6-2.5,6.6-5.6,6.6
			H382.9z"/>
		<path class="st0" d="M458.4,321c2.8,0,5.1,2.7,5.1,6.1c0,3.4-2.3,6.1-5.1,6.1h-75.5c-2.8,0-5.1-2.7-5.1-6.1c0-3.4,2.3-6.1,5.1-6.1
			H458.4 M458.4,320h-75.5c-3.4,0-6.1,3.2-6.1,7.1c0,3.9,2.7,7.1,6.1,7.1h75.5c3.4,0,6.1-3.2,6.1-7.1S461.8,320,458.4,320L458.4,320
			z"/>
	</g>
	<g>
		<path class="st0" d="M382.9,372.6c-3.1,0-5.6-3-5.6-6.6s2.5-6.6,5.6-6.6h75.5c3.1,0,5.6,3,5.6,6.6s-2.5,6.6-5.6,6.6H382.9z"/>
		<path class="st0" d="M458.4,359.9c2.8,0,5.1,2.7,5.1,6.1s-2.3,6.1-5.1,6.1h-75.5c-2.8,0-5.1-2.7-5.1-6.1s2.3-6.1,5.1-6.1H458.4
			 M458.4,358.9h-75.5c-3.4,0-6.1,3.2-6.1,7.1s2.7,7.1,6.1,7.1h75.5c3.4,0,6.1-3.2,6.1-7.1S461.8,358.9,458.4,358.9L458.4,358.9z"/>
	</g>
</g>
<g>
	<path class="st0" d="M5.7,251.1c-2,0-3.6-1.4-3.9-3.4c-5.6-46.5,7.2-93.3,36-131.6C66.6,77.8,108,52.6,154.3,45.2
		c0.2,0,0.4-0.1,0.7-0.1c2,0,3.6,1.4,3.8,3.4c0.1,1.1-0.2,2.2-0.8,3.1c-0.7,0.9-1.6,1.5-2.7,1.7c-44.1,7.1-83.6,31.1-111.1,67.6
		c-27.5,36.5-39.7,81-34.3,125.4c0.3,2.2-1.3,4.4-3.6,4.7C6.1,251.1,5.9,251.1,5.7,251.1C5.7,251.1,5.7,251.1,5.7,251.1z"/>
	<path class="st0" d="M155,45.6c1.7,0,3.1,1.3,3.4,3c0.1,1-0.1,1.9-0.7,2.7c-0.6,0.8-1.4,1.3-2.4,1.5C110.9,59.9,71.4,84,43.8,120.6
		C16.2,157.2,4,201.8,9.4,246.4c0.2,2-1.2,3.9-3.1,4.2c-0.2,0-0.4,0-0.6,0c-1.7,0-3.1-1.3-3.4-3c-5.6-46.4,7.1-93,35.9-131.2
		s70-63.3,116.2-70.7C154.6,45.6,154.8,45.6,155,45.6 M155,44.6c-0.2,0-0.5,0-0.7,0.1c-46.4,7.5-87.9,32.7-116.8,71.1
		C8.5,154.2-4.3,201,1.3,247.7c0.3,2.3,2.1,3.9,4.4,3.9c0.2,0,0.5,0,0.7-0.1c2.5-0.4,4.3-2.8,4-5.3C5,202,17.2,157.6,44.6,121.2
		s66.7-60.3,110.7-67.4c1.2-0.2,2.3-0.9,3-1.8c0.7-1,1.1-2.2,0.9-3.4C159,46.2,157.2,44.6,155,44.6L155,44.6z"/>
</g>
<g>
	<path class="st0" d="M43.3,245c-2,0-3.6-1.4-3.9-3.4C30.4,166.2,83.9,95.1,158.9,83c0.2,0,0.4-0.1,0.7-0.1c2,0,3.6,1.4,3.9,3.4
		c0.3,2.2-1.3,4.4-3.6,4.7C89.3,102.5,39,169.4,47.5,240.2c0.1,1.1-0.2,2.2-0.8,3.1c-0.7,0.9-1.6,1.5-2.7,1.7
		C43.8,245,43.5,245,43.3,245z"/>
	<path class="st0" d="M159.5,83.5c1.7,0,3.1,1.3,3.4,3c0.2,2-1.2,3.9-3.1,4.2C89,102,38.4,169.2,47,240.3c0.1,1-0.1,1.9-0.7,2.7
		c-0.6,0.8-1.4,1.3-2.4,1.5c-0.2,0-0.4,0-0.6,0c-1.7,0-3.1-1.3-3.4-3c-9.1-75.1,44.3-146,119-158C159.2,83.5,159.3,83.5,159.5,83.5
		 M159.5,82.5c-0.2,0-0.5,0-0.7,0.1C83.6,94.6,29.8,166,39,241.6c0.3,2.3,2.1,3.9,4.4,3.9c0.2,0,0.5,0,0.7-0.1
		c1.2-0.2,2.3-0.9,3-1.8c0.7-1,1.1-2.2,0.9-3.4c-8.5-70.6,41.7-137.2,111.9-148.5c2.5-0.4,4.3-2.8,4-5.3
		C163.6,84.1,161.7,82.5,159.5,82.5L159.5,82.5z"/>
</g>
<g>
	<path class="st0" d="M81,239c-2,0-3.6-1.4-3.9-3.4c-3.2-26.4,4.1-52.8,20.4-74.5c16.3-21.7,39.7-35.9,65.9-40.1
		c0.2,0,0.4-0.1,0.7-0.1c2,0,3.6,1.4,3.9,3.4c0.1,1.1-0.2,2.2-0.8,3.1c-0.7,0.9-1.6,1.5-2.7,1.7c-24,3.9-45.5,16.9-60.5,36.8
		S82.3,210,85.2,234.2c0.3,2.2-1.3,4.4-3.6,4.7C81.4,238.9,81.2,239,81,239C81,239,81,239,81,239z"/>
	<path class="st0" d="M164.1,121.4c1.7,0,3.1,1.3,3.4,3c0.1,1-0.1,1.9-0.7,2.7c-0.6,0.8-1.4,1.3-2.4,1.5c-24.2,3.9-45.8,17-60.8,37
		c-15,20-21.7,44.4-18.8,68.7c0.2,2-1.2,3.9-3.1,4.2c-0.2,0-0.4,0-0.6,0c-1.7,0-3.1-1.3-3.4-3c-3.2-26.2,4-52.5,20.3-74.1
		c16.2-21.6,39.5-35.7,65.6-39.9C163.7,121.4,163.9,121.4,164.1,121.4 M164.1,120.4c-0.2,0-0.5,0-0.7,0.1
		c-26.3,4.2-49.9,18.6-66.3,40.3c-16.4,21.8-23.7,48.3-20.5,74.8c0.3,2.3,2.1,3.9,4.4,3.9c0.2,0,0.5,0,0.7-0.1
		c2.5-0.4,4.3-2.8,4-5.3c-2.9-24,3.7-48.2,18.6-67.9c14.9-19.8,36.3-32.8,60.2-36.6c1.2-0.2,2.3-0.9,3-1.8c0.7-1,1.1-2.2,0.9-3.4
		C168.2,122,166.3,120.4,164.1,120.4L164.1,120.4z"/>
</g>
</svg>
